<?xml version="1.0" encoding="UTF-8"?>
<svg width="13px" height="14px" viewBox="0 0 13 14" version="1.1" xmlns="http://www.w3.org/2000/svg" xmlns:xlink="http://www.w3.org/1999/xlink">
    <title>noun_write_3547939</title>
    <g id="Symbols" stroke="none" stroke-width="1" fill="none" fill-rule="evenodd">
        <g id="Category-Tag---Thought-leadership" transform="translate(-12.000000, -13.000000)" fill="#FFFFFF" fill-rule="nonzero">
            <g id="noun_write_3547939" transform="translate(12.000000, 13.000000)">
                <path d="M10.733345,2.681 C10.7324555,1.59731168 10.0792614,0.620719701 9.07801437,0.206128889 C8.07676735,-0.208461923 6.92438889,0.0204885886 6.15766667,0.786333333 L0.751333333,6.19266667 C0.269084993,6.6725897 -0.00141097792,7.32530824 -5.49243012e-06,8.00566667 L-5.49243012e-06,10.7333447 L2.72766667,10.7333447 C3.40883332,10.7353676 4.06250731,10.4648239 4.543,9.982 L9.94933333,4.57566667 C10.4531443,4.07411336 10.7354401,3.3918986 10.733345,2.681 L10.733345,2.681 Z M8.95766667,3.58633333 L3.55133333,8.99266667 C3.33268708,9.21076089 3.03648906,9.33333333 2.72766667,9.33333333 L1.39999814,9.33333333 L1.39999814,8.00566667 C1.39944701,7.69603598 1.52200079,7.39888505 1.74066667,7.17966667 L7.14933333,1.77566667 C7.46908486,1.43460917 7.94924186,1.29482765 8.40209125,1.41096846 C8.85494064,1.52710927 9.2085574,1.88072603 9.3246982,2.33357542 C9.44083901,2.7864248 9.3010575,3.26658181 8.96,3.58633333 L8.95766667,3.58633333 Z" id="Shape"></path>
                <rect id="Rectangle" x="0" y="12.6" width="1.4" height="1.4"></rect>
                <rect id="Rectangle" x="3.73333333" y="12.6" width="1.4" height="1.4"></rect>
                <rect id="Rectangle" x="7.46666667" y="12.6" width="1.4" height="1.4"></rect>
                <rect id="Rectangle" x="11.2" y="12.6" width="1.4" height="1.4"></rect>
            </g>
        </g>
    </g>
</svg>